# xmcd CD database file
# Copyright (C) 1993-1998 Ti Kan
# 
# Track frame offsets:
#     183
#     8463
#     19970
#     35633
#     47245
#     55305
#     68945
#     81148
#     93825
#     107913
#     121463
#     132735
# 
# Disc length: 1919 seconds
# 
# Revision: 1
# Processed by: cddbd v1.4b41PL1 Copyright (c) Steve Scherf et al.
# Submitted via: DiscPlay 4.0.4
# 
DISCID=a4077d0c
DTITLE=Nashville Childrens Chorus - Family Christmas Favorites
DYEAR=1900
DGENRE=
TTITLE0=Joy To The world
TTITLE1=O Little Town Of Bethlehem
TTITLE2=O Holy Night
TTITLE3=It Came Upon a Midnight Clear
TTITLE4=Carol Of The Bells
TTITLE5=Silent Night
TTITLE6=Hark The HeraldAngels Sing
TTITLE7=Little Drummer Boy
TTITLE8=Away In The Manger
TTITLE9=The First Noel
TTITLE10=O Come All Ye Faithful
TTITLE11=Go Tell it On The Mountain
EXTD=
EXTT0=
EXTT1=
EXTT2=
EXTT3=
EXTT4=
EXTT5=
EXTT6=
EXTT7=
EXTT8=
EXTT9=
EXTT10=
EXTT11=
PLAYORDER=
